<?xml version="1.0" encoding="UTF-8" standalone="no"?> <svg xmlns="http://www.w3.org/2000/svg" xmlns:xlink="http://www.w3.org/1999/xlink" viewBox="0 0 64 64"><defs><style>.cls-1{fill:url(#linear-gradient);}.cls-2{fill:url(#linear-gradient-2);}.cls-3{fill:url(#linear-gradient-3);}.cls-4{fill:url(#linear-gradient-4);}.cls-5{fill:url(#linear-gradient-5);}</style><linearGradient id="linear-gradient" x1="7.7" y1="12.54" x2="17.36" y2="12.54" gradientUnits="userSpaceOnUse"><stop offset="0" stop-color="#17a6d7"/><stop offset="1" stop-color="#9d31fe"/></linearGradient><linearGradient id="linear-gradient-2" x1="7.7" y1="51.47" x2="17.36" y2="51.47" xlink:href="#linear-gradient"/><linearGradient id="linear-gradient-3" x1="46.64" y1="51.46" x2="56.3" y2="51.46" xlink:href="#linear-gradient"/><linearGradient id="linear-gradient-4" x1="46.64" y1="12.53" x2="56.3" y2="12.53" xlink:href="#linear-gradient"/><linearGradient id="linear-gradient-5" x1="10.5" y1="32" x2="53.5" y2="32" xlink:href="#linear-gradient"/></defs><g id="Layer_53" data-name="Layer 53"><path class="cls-1" d="M9.2,17.38a1.5,1.5,0,0,0,1.5-1.5V10.7h5.18a1.5,1.5,0,0,0,0-3H9.2A1.5,1.5,0,0,0,7.7,9.2v6.68A1.5,1.5,0,0,0,9.2,17.38Z"/><path class="cls-2" d="M15.88,53.3H10.7V48.12a1.5,1.5,0,0,0-3,0V54.8a1.5,1.5,0,0,0,1.5,1.5h6.68A1.5,1.5,0,0,0,15.88,53.3Z"/><path class="cls-3" d="M54.8,46.62a1.5,1.5,0,0,0-1.5,1.5V53.3H48.12a1.5,1.5,0,0,0,0,3H54.8a1.5,1.5,0,0,0,1.5-1.5V48.12A1.5,1.5,0,0,0,54.8,46.62Z"/><path class="cls-4" d="M54.8,7.7H48.12a1.5,1.5,0,0,0,0,3H53.3v5.18a1.5,1.5,0,0,0,3,0V9.2A1.5,1.5,0,0,0,54.8,7.7Z"/><path class="cls-5" d="M10.5,32A1.5,1.5,0,0,0,12,33.5H52a1.5,1.5,0,0,0,0-3H12A1.5,1.5,0,0,0,10.5,32Z"/></g></svg>