<?xml version="1.0" encoding="iso-8859-1"?>
<!-- Generator: Adobe Illustrator 16.0.0, SVG Export Plug-In . SVG Version: 6.00 Build 0)  -->
<!DOCTYPE svg PUBLIC "-//W3C//DTD SVG 1.1//EN" "http://www.w3.org/Graphics/SVG/1.1/DTD/svg11.dtd">
<svg version="1.1" id="Capa_1" xmlns="http://www.w3.org/2000/svg" xmlns:xlink="http://www.w3.org/1999/xlink" x="0px" y="0px"
	 width="364.508px" height="364.509px" viewBox="0 0 364.508 364.509" style="enable-background:new 0 0 364.508 364.509;"
	 xml:space="preserve">
<g>
	<g>
		<g>
			<path d="M241.039,118.015c2.763,0,5.002,2.24,5.002,5.002c0,2.759-2.239,4.999-5.002,4.999s-4.996-2.239-4.996-4.999
				C236.042,120.255,238.276,118.015,241.039,118.015z"/>
		</g>
		<g>
			<path d="M228.333,118.015c2.762,0,4.996,2.24,4.996,5.002c0,2.759-2.234,4.999-4.996,4.999c-2.763,0-4.996-2.239-4.996-4.999
				C223.336,120.255,225.57,118.015,228.333,118.015z"/>
		</g>
		<g>
			<rect x="129.001" y="121.288" width="72.52" height="5.755"/>
		</g>
		<g>
			<path d="M348.657,88.177c-1.537-2.72-4.132-4.207-7.278-4.207c-13.643,0-45.132-20.558-75.594-40.43
				C231.473,21.158,199.065,0,181.477,0c-18.57,0-56.502,24.154-93.267,47.561c-28.087,17.895-57.147,36.41-66.641,36.41
				c-2.657,0-4.903,1.357-6.161,3.744c-0.826,1.549-1.231,3.504-1.231,5.99c0,35.146,111.191,270.804,167.306,270.804
				c52.975,0,168.849-225.462,168.849-268.579C350.326,92.672,349.792,90.126,348.657,88.177z M251.95,229.083H122.042v-90.688
				H251.95V229.083z M251.95,132.634H122.042v-16.498H251.95V132.634z"/>
		</g>
	</g>
</g>
<g>
</g>
<g>
</g>
<g>
</g>
<g>
</g>
<g>
</g>
<g>
</g>
<g>
</g>
<g>
</g>
<g>
</g>
<g>
</g>
<g>
</g>
<g>
</g>
<g>
</g>
<g>
</g>
<g>
</g>
</svg>
